HIERARCHY
ROOT Hips
{
	OFFSET 0.000000 0.000000 0.000000
	CHANNELS 6 Xposition Yposition Zposition Xrotation Yrotation Zrotation
	JOINT LeftUpLeg_virtual
	{
		OFFSET 0.000000 0.000000 0.000000
		CHANNELS 3 Xrotation Yrotation Zrotation
		JOINT LeftUpLeg
		{
			OFFSET 15.427100 -6.655098 0.678600
			CHANNELS 3 Xrotation Yrotation Zrotation
			JOINT LeftLeg
			{
				OFFSET 4.081073 -39.591068 13.024000
				CHANNELS 3 Xrotation Yrotation Zrotation
				JOINT LeftFoot
				{
					OFFSET -4.081074 -37.707932 -15.979700
					CHANNELS 3 Xrotation Yrotation Zrotation
					JOINT LeftToeBase
					{
						OFFSET 5.346399 -15.068900 20.645000
						CHANNELS 3 Xrotation Yrotation Zrotation
						JOINT LeftToe_End
						{
							OFFSET 2.754700 0.931300 11.300900
							CHANNELS 3 Xrotation Yrotation Zrotation
							End Site
							{
								OFFSET 0 0 0
							}
						}
					}
				}
			}
		}
	}
	JOINT RightUpLeg_virtual
	{
		OFFSET 0.000000 0.000000 0.000000
		CHANNELS 3 Xrotation Yrotation Zrotation
		JOINT RightUpLeg
		{
			OFFSET -15.569500 -6.655098 0.678600
			CHANNELS 3 Xrotation Yrotation Zrotation
			JOINT RightLeg
			{
				OFFSET -4.081825 -39.591045 13.023800
				CHANNELS 3 Xrotation Yrotation Zrotation
				JOINT RightFoot
				{
					OFFSET 4.081824 -37.707954 -15.979600
					CHANNELS 3 Xrotation Yrotation Zrotation
					JOINT RightToeBase
					{
						OFFSET -5.346400 -15.068900 20.645000
						CHANNELS 3 Xrotation Yrotation Zrotation
						JOINT RightToe_End
						{
							OFFSET -2.754700 0.931300 11.300900
							CHANNELS 3 Xrotation Yrotation Zrotation
							End Site
							{
								OFFSET 0 0 0
							}
						}
					}
				}
			}
		}
	}
	JOINT Spine_virtual
	{
		OFFSET 0.000000 0.000000 0.000000
		CHANNELS 3 Xrotation Yrotation Zrotation
		JOINT Spine
		{
			OFFSET -0.279200 12.230698 -2.892100
			CHANNELS 3 Xrotation Yrotation Zrotation
			JOINT Spine1
			{
				OFFSET -0.232667 10.192268 -1.242267
				CHANNELS 3 Xrotation Yrotation Zrotation
				JOINT Spine1_split
				{
					OFFSET -0.232667 10.192268 -1.242267
					CHANNELS 3 Xrotation Yrotation Zrotation
					JOINT Spine2
					{
						OFFSET -0.232667 10.192268 -1.242267
						CHANNELS 3 Xrotation Yrotation Zrotation
						JOINT Neck_virtual
						{
							OFFSET 0.000000 0.000000 0.000000
							CHANNELS 3 Xrotation Yrotation Zrotation
							JOINT Neck
							{
								OFFSET -0.418800 17.814194 8.416900
								CHANNELS 3 Xrotation Yrotation Zrotation
								JOINT Head
								{
									OFFSET 0.000000 7.031097 3.806800
									CHANNELS 3 Xrotation Yrotation Zrotation
									JOINT HeadTop_End
									{
										OFFSET 0.000000 24.646606 12.978600
										CHANNELS 3 Xrotation Yrotation Zrotation
										End Site
										{
											OFFSET 0 0 0
										}
									}
								}
							}
						}
						JOINT LeftShoulder_virtual
						{
							OFFSET 0.000000 0.000000 0.000000
							CHANNELS 3 Xrotation Yrotation Zrotation
							JOINT LeftShoulder
							{
								OFFSET 8.476499 7.247704 -3.868750
								CHANNELS 3 Xrotation Yrotation Zrotation
								JOINT LeftShoulder_split
								{
									OFFSET 8.476499 7.247704 -3.868750
									CHANNELS 3 Xrotation Yrotation Zrotation
									JOINT LeftArm
									{
										OFFSET 9.308998 -2.777710 0.208600
										CHANNELS 3 Xrotation Yrotation Zrotation
										JOINT LeftForeArm
										{
											OFFSET 29.972298 0.000000 0.000000
											CHANNELS 3 Xrotation Yrotation Zrotation
											JOINT LeftHand
											{
												OFFSET 26.026505 0.000000 0.000000
												CHANNELS 3 Xrotation Yrotation Zrotation
												End Site
												{
													OFFSET 0 0 0
												}
											}
										}
									}
								}
							}
						}
						JOINT RightShoulder_virtual
						{
							OFFSET 0.000000 0.000000 0.000000
							CHANNELS 3 Xrotation Yrotation Zrotation
							JOINT RightShoulder
							{
								OFFSET -7.570500 7.247704 -3.868750
								CHANNELS 3 Xrotation Yrotation Zrotation
								JOINT RightShoulder_split
								{
									OFFSET -7.570500 7.247704 -3.868750
									CHANNELS 3 Xrotation Yrotation Zrotation
									JOINT RightArm
									{
										OFFSET -9.308998 -2.777710 0.208500
										CHANNELS 3 Xrotation Yrotation Zrotation
										JOINT RightForeArm
										{
											OFFSET -29.972300 0.000000 0.000000
											CHANNELS 3 Xrotation Yrotation Zrotation
											JOINT RightHand
											{
												OFFSET -26.026505 0.000000 0.000000
												CHANNELS 3 Xrotation Yrotation Zrotation
												End Site
												{
													OFFSET 0 0 0
												}
											}
										}
									}
								}
							}
						}
					}
				}
			}
		}
	}
}
MOTION
Frames: 4
Frame Time: 0.03333333
4.433767 143.790985 10.701309 0.000000 0.000000 0.000000 15.840612 -16.655519 5.516031 -72.998501 -1.610525 29.629426 58.992453 -9.726478 4.465862 17.447930 4.066477 -13.357120 -10.170722 2.412322 0.299103 0.000000 0.000000 0.000000 15.729463 -18.186244 5.520288 -107.674947 -19.232131 -6.252502 86.861203 16.053781 3.213247 28.631648 15.675795 31.506573 9.631019 -22.023605 -24.494612 0.000000 0.000000 0.000000 18.777621 -11.009656 5.247695 23.083200 -0.110774 -10.620531 10.215532 -4.099500 0.359643 0.233282 0.543934 -0.013879 0.000000 0.000000 0.000000 13.210451 -1.524790 -0.182050 2.092107 -9.384027 -10.613819 -30.677723 37.363314 -7.924280 0.000000 0.000000 0.000000 12.169762 -3.104325 -1.581381 10.962087 0.321488 -7.406634 5.418077 -5.387158 -0.638539 -70.649079 -1.025387 9.167727 45.482861 -7.234160 22.771613 0.000000 0.000000 0.000000 16.501800 -1.613802 -0.164016 1.649808 16.364317 -3.801913 11.282363 6.249599 1.516084 -40.545813 -17.423381 -5.078266 -62.002299 47.492802 35.609140 0.000000 0.000000 0.000000 
4.439811 143.802765 10.807625 0.000000 0.000000 0.000000 15.877934 -16.545582 5.494903 -73.092279 -1.548058 29.648441 58.998436 -9.721256 4.440247 17.614832 4.060653 -13.372855 -10.204474 2.418638 0.284769 0.000000 0.000000 0.000000 15.773671 -18.000496 5.467000 -107.612547 -19.178830 -6.116056 86.922183 16.002431 3.158258 28.574264 15.688992 31.567505 9.509362 -21.997794 -24.523415 0.000000 0.000000 0.000000 18.830249 -10.804212 5.169701 23.120156 -0.167289 -10.641880 10.266734 -4.162181 0.410194 0.229242 0.550521 -0.022639 0.000000 0.000000 0.000000 13.267782 -1.558730 -0.193131 2.075572 -9.281052 -10.677043 -31.048305 37.873044 -7.600849 0.000000 0.000000 0.000000 12.235201 -3.157317 -1.503210 11.043468 -0.086171 -6.551826 5.233920 -5.208250 -0.401162 -71.456872 -2.029806 9.402569 44.866065 -6.501903 22.250576 0.000000 0.000000 0.000000 16.548806 -1.680982 -0.131970 1.735011 16.251849 -4.282109 11.506054 6.176515 0.943220 -40.897288 -17.309593 -5.190986 -62.079924 47.696410 35.631639 0.000000 0.000000 0.000000 
4.449457 143.851349 10.945930 0.000000 0.000000 0.000000 15.898908 -16.283116 5.419890 -73.315394 -1.530656 29.677503 59.073828 -9.794602 4.382832 17.921909 4.020727 -13.321309 -10.173800 2.434275 0.249006 0.000000 0.000000 0.000000 15.803664 -17.669177 5.363859 -107.723715 -19.079806 -5.976126 87.133236 15.883943 3.110335 28.715980 15.666716 31.507601 9.176380 -21.921137 -24.535752 0.000000 0.000000 0.000000 18.877582 -10.473564 5.072309 23.212340 -0.202076 -10.692623 10.358448 -4.282819 0.438643 0.230929 0.556640 -0.029038 0.000000 0.000000 0.000000 13.376028 -1.637357 -0.212069 2.106122 -9.070565 -10.692903 -31.504647 38.774700 -7.124602 0.000000 0.000000 0.000000 12.357924 -3.239411 -1.416613 11.175927 -0.625776 -5.209066 5.241856 -5.072492 -0.478885 -72.346566 -4.110389 9.879346 43.901331 -5.389700 21.381311 0.000000 0.000000 0.000000 16.609070 -1.802288 -0.115392 1.970204 16.081452 -5.336338 11.623247 6.171346 0.891157 -41.722016 -17.373298 -5.366275 -62.277153 47.985255 35.820261 0.000000 0.000000 0.000000 
4.466482 143.940247 11.108944 0.000000 0.000000 0.000000 15.890760 -15.925819 5.288182 -73.596224 -1.565880 29.708779 59.170946 -9.930531 4.310103 18.302112 3.964838 -13.220067 -10.082392 2.459196 0.192738 0.000000 0.000000 0.000000 15.808338 -17.284178 5.221158 -107.924946 -18.993305 -5.815007 87.412488 15.684397 3.089324 29.004723 15.576979 31.315270 8.625218 -21.798819 -24.538062 0.000000 0.000000 0.000000 18.910062 -10.098436 4.958623 23.320130 -0.203395 -10.750051 10.475482 -4.441836 0.439623 0.231539 0.555189 -0.032464 0.000000 0.000000 0.000000 13.525674 -1.745625 -0.242823 2.189750 -8.766081 -10.651960 -31.974120 40.016555 -6.534390 0.000000 0.000000 0.000000 12.530838 -3.347014 -1.337147 11.354386 -1.245216 -3.614057 5.381592 -5.128970 -0.861033 -73.218351 -6.836972 10.368316 42.796726 -4.174063 20.382891 0.000000 0.000000 0.000000 16.694012 -1.958322 -0.128741 2.312026 15.922686 -6.789359 11.764253 6.293624 1.093571 -42.829815 -17.554761 -5.515569 -62.527534 48.277051 36.113075 0.000000 0.000000 0.000000 
